<svg xmlns="http://www.w3.org/2000/svg" xmlns:xlink="http://www.w3.org/1999/xlink" width="141" zoomAndPan="magnify" viewBox="0 0 105.75 55.5" height="74" preserveAspectRatio="xMidYMid meet" version="1.0"><defs><clipPath id="169d4e0900"><path d="M 29 0 L 76 0 L 76 55.003906 L 29 55.003906 Z M 29 0 " clip-rule="nonzero"/></clipPath></defs><g clip-path="url(#169d4e0900)"><path fill="#ff7d2c" d="M 52.695312 -0.015625 C 51.546875 -0.015625 50.40625 0.0703125 49.269531 0.242188 C 48.132812 0.417969 47.015625 0.671875 45.917969 1.011719 C 44.820312 1.351562 43.753906 1.773438 42.722656 2.273438 C 41.6875 2.773438 40.695312 3.351562 39.746094 4 C 38.796875 4.652344 37.902344 5.367188 37.058594 6.152344 C 36.21875 6.9375 35.441406 7.78125 34.722656 8.683594 C 34.007812 9.585938 33.363281 10.535156 32.789062 11.535156 C 32.21875 12.53125 31.722656 13.570312 31.300781 14.644531 C 30.882812 15.714844 30.546875 16.816406 30.292969 17.9375 C 30.039062 19.0625 29.871094 20.199219 29.785156 21.351562 C 29.699219 22.5 29.703125 23.648438 29.789062 24.800781 C 29.875 25.949219 30.046875 27.085938 30.304688 28.207031 C 30.5625 29.332031 30.902344 30.429688 31.324219 31.503906 C 31.742188 32.574219 32.242188 33.609375 32.816406 34.609375 C 33.394531 35.605469 34.039062 36.554688 34.757812 37.453125 C 35.476562 38.355469 36.257812 39.195312 37.101562 39.980469 L 51.875 54.734375 C 52.09375 54.980469 52.363281 55.105469 52.691406 55.109375 C 53.015625 55.105469 53.28125 54.980469 53.496094 54.734375 L 68.113281 40.074219 C 68.96875 39.296875 69.757812 38.460938 70.488281 37.566406 C 71.21875 36.667969 71.875 35.722656 72.460938 34.726562 C 73.046875 33.734375 73.558594 32.699219 73.988281 31.625 C 74.421875 30.554688 74.769531 29.457031 75.035156 28.332031 C 75.300781 27.207031 75.484375 26.066406 75.578125 24.914062 C 75.675781 23.761719 75.683594 22.609375 75.605469 21.453125 C 75.527344 20.300781 75.363281 19.160156 75.113281 18.03125 C 74.867188 16.902344 74.535156 15.796875 74.117188 14.71875 C 73.703125 13.640625 73.210938 12.597656 72.640625 11.59375 C 72.066406 10.589844 71.425781 9.632812 70.710938 8.726562 C 69.996094 7.820312 69.21875 6.96875 68.375 6.179688 C 67.53125 5.390625 66.636719 4.671875 65.683594 4.015625 C 64.734375 3.363281 63.742188 2.785156 62.703125 2.28125 C 61.664062 1.777344 60.597656 1.355469 59.496094 1.011719 C 58.394531 0.671875 57.273438 0.414062 56.132812 0.242188 C 54.996094 0.0703125 53.847656 -0.015625 52.695312 -0.015625 Z M 61.234375 36.375 L 42.949219 36.375 L 42.949219 34.0625 L 61.234375 34.0625 Z M 62.382812 26.582031 C 62.382812 26.9375 62.351562 27.289062 62.28125 27.636719 C 62.214844 27.984375 62.113281 28.320312 61.980469 28.648438 C 61.847656 28.976562 61.679688 29.285156 61.484375 29.578125 C 61.289062 29.875 61.066406 30.144531 60.816406 30.394531 C 60.566406 30.644531 60.292969 30.867188 60 31.0625 C 59.707031 31.257812 59.394531 31.421875 59.070312 31.554688 C 58.742188 31.691406 58.40625 31.789062 58.058594 31.855469 C 57.714844 31.921875 57.363281 31.953125 57.011719 31.949219 L 47.160156 31.949219 C 46.808594 31.953125 46.460938 31.917969 46.117188 31.851562 C 45.769531 31.78125 45.4375 31.679688 45.113281 31.546875 C 44.785156 31.414062 44.476562 31.246094 44.1875 31.050781 C 43.894531 30.855469 43.625 30.632812 43.375 30.382812 C 43.128906 30.132812 42.90625 29.863281 42.710938 29.570312 C 42.515625 29.277344 42.351562 28.964844 42.21875 28.640625 C 42.085938 28.3125 41.988281 27.976562 41.917969 27.632812 C 41.851562 27.285156 41.820312 26.9375 41.820312 26.582031 L 41.820312 16.421875 C 41.828125 16.109375 41.941406 15.84375 42.15625 15.621094 C 42.375 15.394531 42.636719 15.277344 42.949219 15.265625 L 61.234375 15.265625 C 61.386719 15.269531 61.53125 15.300781 61.667969 15.363281 C 61.808594 15.421875 61.929688 15.503906 62.039062 15.613281 C 62.144531 15.71875 62.226562 15.84375 62.285156 15.984375 C 62.347656 16.125 62.378906 16.269531 62.382812 16.421875 Z M 65.695312 25.261719 L 64.765625 25.261719 L 64.765625 22.949219 L 65.695312 22.949219 C 66.058594 22.960938 66.40625 22.898438 66.746094 22.769531 C 67.082031 22.636719 67.382812 22.445312 67.640625 22.191406 C 67.902344 21.9375 68.101562 21.644531 68.242188 21.3125 C 68.382812 20.976562 68.453125 20.628906 68.453125 20.265625 C 68.453125 19.902344 68.382812 19.550781 68.242188 19.21875 C 68.101562 18.882812 67.902344 18.589844 67.640625 18.335938 C 67.382812 18.082031 67.082031 17.890625 66.746094 17.757812 C 66.40625 17.628906 66.058594 17.566406 65.695312 17.578125 L 63.027344 17.578125 L 63.027344 15.265625 L 65.695312 15.265625 C 66.023438 15.265625 66.347656 15.300781 66.667969 15.363281 C 66.988281 15.425781 67.300781 15.523438 67.601562 15.648438 C 67.902344 15.773438 68.191406 15.925781 68.460938 16.109375 C 68.734375 16.292969 68.984375 16.5 69.21875 16.730469 C 69.449219 16.964844 69.65625 17.214844 69.835938 17.488281 C 70.019531 17.761719 70.171875 18.050781 70.296875 18.351562 C 70.421875 18.65625 70.515625 18.96875 70.578125 19.289062 C 70.644531 19.613281 70.675781 19.9375 70.675781 20.265625 C 70.675781 20.59375 70.644531 20.917969 70.578125 21.238281 C 70.515625 21.5625 70.421875 21.875 70.296875 22.175781 C 70.171875 22.480469 70.019531 22.769531 69.835938 23.042969 C 69.65625 23.316406 69.449219 23.566406 69.21875 23.800781 C 68.984375 24.03125 68.734375 24.238281 68.460938 24.421875 C 68.191406 24.601562 67.902344 24.757812 67.601562 24.882812 C 67.300781 25.007812 66.988281 25.101562 66.667969 25.167969 C 66.347656 25.230469 66.023438 25.261719 65.695312 25.261719 Z M 65.695312 25.261719 " fill-opacity="1" fill-rule="nonzero"/></g></svg>