<svg xmlns="http://www.w3.org/2000/svg" xmlns:xlink="http://www.w3.org/1999/xlink" width="141" zoomAndPan="magnify" viewBox="0 0 105.75 55.5" height="74" preserveAspectRatio="xMidYMid meet" version="1.0"><defs><clipPath id="e8adc61d55"><path d="M 27.511719 26 L 78 26 L 78 37 L 27.511719 37 Z M 27.511719 26 " clip-rule="nonzero"/></clipPath><clipPath id="2aa6c49fad"><path d="M 32 52 L 74 52 L 74 55.003906 L 32 55.003906 Z M 32 52 " clip-rule="nonzero"/></clipPath></defs><path fill="#ff7d2c" d="M 68.5625 51.3125 L 67.289062 51.3125 L 67.289062 41.394531 L 68.5625 41.394531 Z M 62.402344 51.3125 L 61.132812 51.3125 L 61.132812 41.394531 L 62.402344 41.394531 Z M 56.238281 51.3125 L 54.964844 51.3125 L 54.964844 41.394531 L 56.238281 41.394531 Z M 50.078125 51.3125 L 48.804688 51.3125 L 48.804688 41.394531 L 50.078125 41.394531 Z M 43.917969 51.3125 L 42.644531 51.3125 L 42.644531 41.394531 L 43.917969 41.394531 Z M 37.753906 51.3125 L 36.484375 51.3125 L 36.484375 41.394531 L 37.753906 41.394531 Z M 33.5 40.480469 L 33.5 51.925781 L 72.425781 51.925781 L 72.425781 40.480469 L 33.5 40.480469 " fill-opacity="1" fill-rule="nonzero"/><path fill="#ff7d2c" d="M 45.1875 21.238281 C 45.1875 23.648438 43.238281 25.597656 40.832031 25.597656 C 38.433594 25.597656 36.484375 23.648438 36.484375 21.238281 C 36.484375 18.832031 38.433594 16.878906 40.832031 16.878906 C 43.238281 16.878906 45.1875 18.832031 45.1875 21.238281 " fill-opacity="1" fill-rule="nonzero"/><g clip-path="url(#e8adc61d55)"><path fill="#ff7d2c" d="M 76.007812 32.058594 L 59.484375 32.351562 C 59.078125 32.363281 58.691406 32.492188 58.371094 32.726562 L 50.714844 36.367188 L 46.703125 30.199219 C 45.140625 26.886719 42.644531 25.992188 39.457031 26.941406 L 28.792969 33.210938 C 28.023438 33.664062 27.660156 34.578125 27.902344 35.4375 C 28.148438 36.292969 28.972656 36.898438 29.832031 36.859375 L 38.976562 36.625 C 40.058594 36.601562 40.910156 35.699219 40.882812 34.617188 C 40.855469 33.539062 39.9375 32.671875 38.878906 32.710938 L 37.300781 32.753906 L 39.945312 31.195312 L 42.859375 36.917969 L 59.519531 36.917969 L 59.597656 36.839844 L 76.078125 35.976562 C 77.160156 35.957031 78.019531 35.0625 78 33.984375 C 77.980469 32.902344 77.082031 32.058594 76.007812 32.058594 " fill-opacity="1" fill-rule="nonzero"/></g><path fill="#ff7d2c" d="M 73.894531 39.859375 L 32.035156 39.859375 L 32.035156 37.3125 L 73.894531 37.3125 L 73.894531 39.859375 " fill-opacity="1" fill-rule="nonzero"/><g clip-path="url(#2aa6c49fad)"><path fill="#ff7d2c" d="M 73.894531 55.097656 L 32.035156 55.097656 L 32.035156 52.546875 L 73.894531 52.546875 L 73.894531 55.097656 " fill-opacity="1" fill-rule="nonzero"/></g><path fill="#ff7d2c" d="M 56.792969 13.949219 C 56.792969 13.949219 56.664062 14.160156 56.539062 14.566406 C 55.222656 18.484375 57.011719 18.449219 58.097656 20.734375 C 59.417969 23.566406 58.332031 27.03125 56.808594 28.625 C 58.167969 21.347656 56.050781 20.972656 55.355469 18.863281 C 54.660156 17.023438 56.007812 14.597656 56.792969 13.949219 " fill-opacity="1" fill-rule="nonzero"/><path fill="#ff7d2c" d="M 58.695312 -0.0390625 C 56.976562 4.277344 61.4375 5.859375 61.042969 12.347656 C 60.949219 13.835938 60.472656 15.742188 59.597656 17.457031 C 59.351562 17.921875 59.1875 18.175781 59.1875 18.175781 C 59.1875 18.175781 59.226562 17.878906 59.300781 17.359375 C 60.886719 5.980469 54.945312 4.265625 58.695312 -0.0390625 " fill-opacity="1" fill-rule="nonzero"/></svg>