<svg xmlns="http://www.w3.org/2000/svg" xmlns:xlink="http://www.w3.org/1999/xlink" width="141" zoomAndPan="magnify" viewBox="0 0 105.75 55.5" height="74" preserveAspectRatio="xMidYMid meet" version="1.0"><defs><clipPath id="2c60c60662"><path d="M 46 8 L 80.425781 8 L 80.425781 55.003906 L 46 55.003906 Z M 46 8 " clip-rule="nonzero"/></clipPath><clipPath id="3df2115abf"><path d="M 25.292969 0 L 60 0 L 60 48 L 25.292969 48 Z M 25.292969 0 " clip-rule="nonzero"/></clipPath></defs><g clip-path="url(#2c60c60662)"><path fill="#ff7d2c" d="M 80.398438 57.660156 C 78.8125 55.121094 77.226562 52.578125 75.636719 50.039062 L 73.253906 46.234375 L 70.859375 42.433594 L 66.066406 34.832031 L 61.570312 27.710938 L 67.359375 19.160156 L 68.886719 16.914062 C 69.394531 16.164062 69.902344 15.414062 70.414062 14.667969 L 73.492188 10.195312 L 74.738281 8.386719 L 58.320312 8.277344 L 57.972656 8.898438 C 57.46875 9.808594 56.972656 10.726562 56.472656 11.640625 L 56.097656 12.324219 L 55.730469 13.015625 L 54.992188 14.394531 L 53.527344 17.15625 L 52.78125 18.582031 C 52.496094 18.148438 52.210938 17.714844 51.925781 17.28125 L 51.054688 15.96875 L 50.171875 14.65625 L 49.289062 13.351562 L 48.398438 12.050781 C 47.796875 11.1875 47.191406 10.324219 46.574219 9.472656 C 46.53125 9.398438 46.472656 9.382812 46.398438 9.425781 C 46.328125 9.46875 46.3125 9.527344 46.355469 9.601562 C 46.800781 10.554688 47.261719 11.5 47.734375 12.445312 L 48.441406 13.855469 L 49.15625 15.261719 L 49.878906 16.667969 L 50.605469 18.066406 C 51.097656 18.996094 51.585938 19.925781 52.082031 20.851562 L 52.800781 22.1875 L 53.65625 20.839844 C 54.210938 19.960938 54.757812 19.074219 55.308594 18.191406 L 56.945312 15.53125 L 57.757812 14.195312 L 58.164062 13.53125 L 58.566406 12.863281 C 58.972656 12.1875 59.378906 11.511719 59.785156 10.832031 C 60.105469 10.832031 69.921875 10.796875 70.3125 10.789062 L 68.625 13.480469 C 68.144531 14.25 67.65625 15.011719 67.171875 15.777344 L 65.714844 18.070312 L 59.882812 27.234375 L 59.578125 27.710938 L 59.882812 28.152344 L 64.941406 35.578125 L 70.011719 42.996094 L 72.542969 46.703125 L 75.089844 50.40625 C 76.78125 52.878906 78.484375 55.34375 80.1875 57.804688 C 80.234375 57.875 80.292969 57.886719 80.363281 57.839844 C 80.429688 57.792969 80.441406 57.734375 80.398438 57.664062 Z M 80.398438 57.660156 " fill-opacity="1" fill-rule="nonzero"/></g><g clip-path="url(#3df2115abf)"><path fill="#ff7d2c" d="M 57.996094 42.945312 L 57.292969 41.53125 L 56.578125 40.125 L 55.851562 38.722656 L 55.125 37.324219 C 54.632812 36.390625 54.144531 35.460938 53.648438 34.535156 L 52.929688 33.199219 L 52.078125 34.546875 C 51.519531 35.425781 50.976562 36.3125 50.421875 37.199219 L 48.785156 39.859375 L 47.972656 41.191406 L 47.566406 41.859375 L 47.167969 42.523438 C 46.761719 43.199219 46.355469 43.878906 45.953125 44.554688 C 45.632812 44.554688 35.816406 44.59375 35.425781 44.601562 L 37.105469 41.90625 C 37.585938 41.140625 38.074219 40.375 38.558594 39.613281 L 40.015625 37.320312 L 45.851562 28.15625 L 46.152344 27.679688 L 45.851562 27.234375 L 40.792969 19.824219 L 35.722656 12.421875 L 33.1875 8.722656 L 30.640625 5.027344 C 28.949219 2.5625 27.25 0.101562 25.542969 -2.351562 C 25.496094 -2.417969 25.441406 -2.429688 25.375 -2.386719 C 25.304688 -2.34375 25.289062 -2.285156 25.332031 -2.214844 C 26.921875 0.324219 28.507812 2.859375 30.09375 5.394531 L 32.476562 9.191406 L 34.871094 12.988281 L 39.664062 20.574219 L 44.160156 27.679688 L 38.375 36.226562 L 36.851562 38.476562 C 36.339844 39.222656 35.835938 39.972656 35.320312 40.71875 L 32.242188 45.195312 L 30.996094 47.003906 L 47.417969 47.113281 L 47.765625 46.484375 C 48.269531 45.574219 48.765625 44.660156 49.265625 43.746094 L 49.636719 43.058594 L 50.007812 42.367188 L 50.75 40.992188 L 52.203125 38.234375 L 52.949219 36.808594 L 53.804688 38.109375 L 54.675781 39.421875 L 55.558594 40.730469 L 56.441406 42.035156 L 57.335938 43.335938 C 57.933594 44.203125 58.539062 45.0625 59.15625 45.917969 C 59.203125 45.976562 59.257812 45.988281 59.324219 45.949219 C 59.386719 45.910156 59.40625 45.855469 59.371094 45.789062 C 58.929688 44.835938 58.46875 43.890625 57.996094 42.945312 Z M 57.996094 42.945312 " fill-opacity="1" fill-rule="nonzero"/></g></svg>